<?xml version="1.0" standalone="no"?>
<!DOCTYPE svg PUBLIC "-//W3C//DTD SVG 20010904//EN"
 "http://www.w3.org/TR/2001/REC-SVG-20010904/DTD/svg10.dtd">
<svg version="1.0" xmlns="http://www.w3.org/2000/svg"
 width="1376.000000pt" height="1376.000000pt" viewBox="0 0 1376.000000 1376.000000"
 preserveAspectRatio="xMidYMid meet">
<metadata>
Created by potrace 1.14, written by Peter Selinger 2001-2017
</metadata>
<g transform="translate(0.000000,1376.000000) scale(0.100000,-0.100000)"
fill="#000000" stroke="none">
<path d="M529 9615 c-4 -1 -10 -77 -9 -115 1 -8 -1 -32 -2 -52 -2 -21 -1 -38
2 -38 3 0 4 -21 2 -47 -3 -46 -2 -81 1 -150 2 -18 -1 -33 -4 -33 -6 0 -5 -22
1 -40 3 -6 1 -55 -3 -90 -1 -14 2 -31 7 -37 5 -8 4 -13 -3 -13 -8 0 -9 -5 -2
-17 6 -11 6 -24 0 -35 -6 -10 -6 -18 -1 -18 10 0 7 -54 -3 -71 -4 -5 -3 -9 2
-9 4 0 8 -34 8 -75 0 -41 -3 -75 -7 -75 -5 0 -4 -23 2 -40 3 -6 1 -55 -3 -90
-1 -14 2 -31 7 -37 5 -8 4 -13 -3 -13 -8 0 -9 -6 -2 -18 6 -11 6 -24 0 -35 -6
-10 -6 -17 -1 -17 10 0 7 -54 -3 -71 -4 -5 -3 -9 2 -9 4 0 8 -34 8 -75 0 -41
-3 -75 -7 -75 -5 0 -4 -23 2 -40 3 -6 1 -55 -3 -90 -1 -14 2 -31 7 -37 5 -8 4
-13 -3 -13 -8 0 -9 -6 -3 -17 5 -10 8 -27 6 -38 -3 -19 -5 -53 -4 -85 1 -8 -1
-32 -2 -52 -2 -21 -1 -38 2 -38 3 0 4 -21 2 -47 -1 -27 -3 -55 -2 -63 0 -8 0
-31 -1 -50 0 -19 0 -41 0 -47 2 -28 2 -40 -1 -75 -2 -21 -1 -38 2 -38 3 0 4
-21 2 -47 -3 -46 -2 -81 1 -150 2 -18 -1 -33 -4 -33 -6 0 -5 -22 1 -40 3 -6 1
-55 -3 -90 -1 -14 2 -31 7 -37 5 -8 4 -13 -3 -13 -8 0 -9 -6 -2 -18 6 -11 6
-24 0 -35 -6 -10 -6 -17 -1 -17 10 0 7 -54 -3 -71 -4 -5 -3 -9 2 -9 4 0 8 -34
8 -75 0 -41 -3 -75 -7 -75 -5 0 -4 -23 2 -40 3 -6 1 -55 -3 -90 -1 -14 2 -31
7 -37 5 -8 4 -13 -3 -13 -8 0 -9 -6 -2 -18 6 -11 6 -24 0 -35 -6 -10 -6 -17
-1 -17 10 0 7 -54 -3 -71 -4 -5 -3 -9 2 -9 4 0 8 -34 8 -75 0 -41 -3 -75 -7
-75 -5 0 -4 -23 2 -40 3 -6 1 -55 -3 -90 -1 -14 2 -31 7 -37 5 -8 4 -13 -3
-13 -8 0 -9 -6 -3 -17 5 -10 8 -27 6 -38 -3 -19 -5 -53 -4 -85 1 -8 -1 -32 -2
-52 -2 -21 -1 -38 2 -38 3 0 4 -21 2 -47 -1 -27 -3 -55 -2 -63 0 -8 0 -31 -1
-50 0 -19 0 -41 0 -47 2 -28 2 -40 -1 -75 -2 -21 -1 -38 2 -38 3 0 4 -21 2
-47 -3 -46 -2 -81 1 -150 2 -18 -1 -33 -4 -33 -6 0 -5 -22 1 -40 3 -6 1 -55
-3 -90 -1 -14 2 -31 7 -37 5 -8 4 -13 -3 -13 -8 0 -9 -6 -2 -18 6 -11 6 -24 0
-35 -6 -10 -6 -17 -1 -17 10 0 7 -54 -3 -71 -4 -5 -3 -9 2 -9 4 0 8 -34 8 -75
0 -41 -3 -75 -7 -75 -5 0 -4 -23 2 -40 3 -6 1 -55 -3 -90 -1 -14 2 -31 7 -37
5 -8 4 -13 -3 -13 -8 0 -9 -6 -2 -18 6 -11 6 -24 0 -35 -6 -10 -6 -17 -1 -17
10 0 7 -54 -3 -71 -4 -5 -3 -9 2 -9 4 0 8 -34 8 -75 0 -41 -3 -75 -7 -75 -5 0
-4 -23 2 -40 3 -6 1 -55 -3 -90 -1 -14 2 -31 7 -37 5 -8 4 -13 -3 -13 -8 0 -9
-6 -3 -17 5 -10 8 -27 6 -38 -6 -34 -6 -69 -1 -93 3 -12 1 -22 -5 -22 -17 0
10 -27 32 -33 11 -3 23 -1 26 4 3 5 9 7 14 4 15 -9 80 -12 80 -4 0 4 13 4 30
-1 17 -5 30 -5 30 0 0 5 6 7 12 5 22 -9 108 -11 108 -4 0 4 13 4 29 -1 16 -4
32 -6 35 -3 7 8 105 7 113 0 3 -4 13 -2 22 3 10 5 23 5 31 0 8 -5 21 -5 30 0
9 5 22 5 30 0 7 -4 23 -5 34 0 12 4 30 4 40 0 11 -3 36 -4 55 0 20 3 47 3 61
0 14 -4 37 -3 53 1 15 4 27 4 27 -1 0 -5 13 -5 29 0 15 4 34 4 42 0 7 -5 20
-5 29 0 9 5 22 5 29 1 7 -5 29 -5 49 -1 20 3 48 3 62 0 14 -4 37 -3 53 1 15 4
27 4 27 -1 0 -5 13 -5 29 0 15 4 34 4 41 0 7 -5 24 -4 36 0 14 6 26 5 29 -1 4
-5 10 -7 15 -4 5 3 9 523 9 1156 0 633 2 1153 5 1156 3 4 1930 7 2097 4 l25
-1 0 -1150 -1 -1151 23 -6 c33 -8 172 -9 172 -1 0 4 13 3 29 -2 16 -4 32 -6
35 -3 3 3 28 5 56 4 52 -1 72 -1 93 0 6 0 29 -1 50 -3 20 -3 37 -1 37 3 0 4
14 4 30 -1 17 -5 30 -5 30 0 0 5 6 7 13 5 21 -9 107 -11 107 -4 0 4 13 4 29
-1 16 -4 32 -6 35 -3 7 8 105 7 113 0 3 -4 13 -2 22 3 10 5 23 5 31 0 8 -5 21
-5 30 0 9 5 22 5 30 0 7 -4 23 -5 34 0 12 4 30 4 40 0 11 -3 36 -4 55 0 20 3
47 3 61 0 14 -4 37 -3 53 1 15 4 27 4 27 -1 0 -5 13 -5 29 0 15 4 34 4 41 0 7
-4 24 -4 39 -1 l26 7 0 2805 0 2805 -682 0 c-679 0 -681 0 -685 -21 -2 -11 -3
-506 -2 -1100 l0 -1080 -1058 0 c-914 0 -1060 2 -1068 15 -6 9 -5 17 3 22 7 4
8 8 2 8 -5 0 -10 16 -10 35 0 19 5 35 10 35 7 0 7 3 0 8 -5 4 -10 21 -10 37 0
17 5 33 10 37 7 5 7 8 0 8 -5 0 -10 16 -10 35 0 19 5 35 10 35 7 0 7 3 0 8 -5
4 -10 21 -10 37 0 17 5 33 10 37 7 5 7 8 0 8 -5 0 -10 16 -10 35 0 19 5 35 10
35 7 0 7 3 0 8 -5 4 -10 21 -10 37 0 17 5 33 10 37 7 5 7 8 0 8 -7 0 -10 232
-10 675 0 443 3 675 10 675 7 0 7 3 0 8 -5 4 -10 21 -10 37 0 17 5 33 10 37 7
5 7 8 0 8 -5 0 -10 16 -10 35 0 19 5 35 10 35 7 0 7 3 0 8 -5 4 -10 21 -10 37
0 17 5 33 10 37 7 5 7 8 0 8 -6 0 -9 16 -7 38 l4 38 -681 0 c-375 0 -682 0
-682 -1z"/>
<path d="M6616 9611 c-2 -3 -3 -1267 -3 -2808 l0 -2803 26 -1 c14 -1 31 0 36
1 21 5 106 2 112 -3 3 -4 13 -2 22 3 10 5 23 5 31 0 8 -5 21 -5 30 0 9 5 22 5
30 0 7 -4 23 -5 34 0 12 4 30 4 40 0 11 -3 36 -4 55 0 20 3 47 3 61 0 14 -4
37 -3 53 1 15 4 27 4 27 -1 0 -5 13 -5 29 0 15 4 34 4 42 0 7 -5 20 -5 29 0 9
5 22 5 29 1 7 -5 29 -5 49 -1 20 3 48 3 62 0 14 -4 37 -3 53 1 15 4 27 4 27
-1 0 -5 13 -5 29 0 15 4 34 4 42 0 7 -5 20 -5 29 0 9 5 22 5 28 1 7 -4 35 -5
62 -1 27 4 55 3 62 -1 7 -4 19 -4 27 1 9 4 23 4 31 0 9 -5 22 -5 30 0 8 5 21
5 30 0 9 -5 22 -5 29 0 8 4 26 4 41 0 33 -9 52 1 50 26 -1 11 -1 24 0 29 1 6
2 28 1 50 -1 91 -1 421 0 428 3 26 1 76 -4 90 -4 10 -2 17 3 17 5 0 5 13 0 30
-5 16 -5 32 0 35 5 3 5 18 0 34 -4 16 -6 32 -2 35 7 8 7 69 -1 89 -4 10 -2 17
3 17 5 0 5 13 0 30 -5 16 -5 32 0 35 5 3 5 18 0 34 -4 16 -6 32 -2 35 3 4 5
25 4 49 -2 51 -3 419 -1 430 3 26 1 76 -4 90 -4 10 -2 17 3 17 5 0 5 13 0 30
-5 16 -5 32 0 35 5 3 5 18 0 34 -4 16 -6 32 -2 35 7 8 7 69 -1 89 -4 10 -2 17
3 17 5 0 5 13 0 30 -5 16 -5 32 0 35 5 3 5 18 0 34 -4 16 -6 32 -2 35 7 8 7
69 -1 89 -3 9 -2 19 3 22 5 3 7 12 4 20 -5 13 18 14 161 12 l166 -2 22 -40
c12 -22 24 -42 27 -45 3 -3 6 -11 8 -19 2 -8 11 -26 21 -40 10 -14 36 -60 58
-101 22 -41 52 -96 66 -122 48 -85 79 -142 112 -203 18 -33 42 -78 55 -100 12
-22 38 -67 56 -100 18 -33 49 -89 69 -125 20 -36 43 -81 53 -100 9 -19 19 -37
22 -40 5 -5 5 -5 70 -125 23 -44 46 -84 50 -90 4 -5 26 -46 50 -90 40 -75 151
-276 235 -425 20 -36 45 -83 56 -105 11 -22 28 -53 38 -70 10 -16 33 -57 51
-90 44 -81 50 -87 77 -82 13 2 23 1 23 -2 0 -4 27 -4 60 -1 33 3 66 3 72 -1 7
-4 19 -4 28 1 9 5 22 5 30 0 8 -5 21 -5 30 0 9 5 22 5 30 0 7 -4 23 -4 36 0
12 5 24 6 27 4 8 -8 127 -10 127 -2 0 4 13 3 29 -2 16 -4 32 -6 35 -3 3 3 28
5 56 4 52 -1 72 -1 93 0 6 0 29 -1 50 -3 20 -3 37 -1 37 3 0 4 14 4 30 -1 17
-5 30 -5 30 0 0 5 6 7 13 5 21 -9 107 -11 107 -4 0 4 13 4 29 -1 16 -4 32 -6
35 -3 3 3 28 5 56 4 27 -1 57 -1 65 -1 8 0 22 0 30 0 8 0 22 0 30 0 8 0 22 0
30 0 8 0 22 0 30 0 8 0 26 0 40 0 14 0 31 -1 38 -1 6 -1 32 0 57 0 55 1 78 1
108 1 l23 0 -28 48 c-15 26 -47 79 -70 117 -24 39 -48 82 -54 98 -6 15 -15 27
-20 27 -5 0 -8 3 -7 8 2 4 -29 61 -68 127 -39 66 -86 146 -104 177 -17 32 -36
61 -41 64 -5 3 -9 14 -9 25 0 10 -4 19 -10 19 -5 0 -16 15 -24 33 -16 34 -57
108 -66 117 -3 3 -10 14 -16 25 -26 48 -39 70 -44 75 -3 3 -13 21 -23 40 -34
63 -52 95 -58 100 -3 3 -8 12 -12 20 -4 8 -20 38 -37 65 -17 28 -37 65 -45 83
-9 17 -20 32 -26 32 -6 0 -9 6 -6 14 3 8 2 16 -2 18 -10 4 -141 225 -141 238
0 6 -4 10 -10 10 -5 0 -10 4 -10 9 0 7 -235 417 -285 496 -7 11 -12 23 -11 26
1 4 -6 15 -15 25 -18 21 -52 85 -47 88 2 1 28 10 58 20 30 10 69 24 85 31 17
7 57 24 90 36 33 13 62 27 63 32 2 4 10 7 17 7 17 0 209 109 213 121 2 5 10 9
18 9 8 0 14 5 14 10 0 6 5 10 11 10 6 0 16 6 23 13 7 6 31 26 52 42 76 59 264
256 264 278 0 4 8 16 18 26 26 29 42 50 42 54 0 2 23 41 50 87 28 46 50 89 50
95 0 7 7 18 15 25 9 7 14 19 11 27 -3 7 -1 13 5 13 6 0 8 4 4 9 -3 5 -1 12 4
15 5 4 17 30 27 59 9 28 21 58 27 65 5 6 7 12 3 12 -3 0 -1 12 5 28 10 26 55
240 58 272 0 8 3 33 6 55 6 52 6 308 -1 360 -3 22 -7 54 -9 70 -10 80 -17 116
-36 194 -12 47 -28 103 -36 125 -8 23 -16 46 -17 53 -1 7 -5 16 -9 19 -4 4 -7
16 -7 26 0 10 -5 18 -12 18 -6 0 -9 3 -5 6 7 8 -123 264 -135 264 -4 0 -8 6
-8 13 0 6 -10 24 -23 39 -12 15 -44 55 -72 89 -77 97 -166 182 -265 254 -30
22 -56 43 -58 47 -2 5 -8 8 -12 8 -5 0 -28 13 -52 29 -110 74 -384 196 -487
217 -13 3 -32 9 -42 15 -10 5 -22 8 -26 8 -4 -1 -15 0 -23 4 -42 15 -238 51
-345 63 -33 3 -76 8 -95 11 -50 7 -2570 10 -2574 4z m1476 -1130 c10 6 19 5
23 -1 4 -7 13 -7 26 0 12 7 25 7 36 1 11 -6 24 -6 35 0 10 6 19 5 23 -1 4 -7
12 -7 25 0 10 6 21 6 24 1 3 -4 23 -5 43 -1 21 3 50 3 66 -1 15 -4 27 -3 27 2
0 5 10 5 23 1 25 -9 59 -8 75 2 6 3 13 2 17 -3 4 -7 15 -7 30 -1 16 6 25 6 25
0 0 -6 10 -6 26 0 16 6 32 6 43 1 10 -6 23 -6 31 -1 8 5 21 5 31 -1 11 -6 20
-5 24 1 4 7 12 7 23 1 10 -6 23 -6 34 0 10 6 19 5 23 -1 4 -7 12 -7 24 0 10 5
21 6 25 3 3 -4 32 -8 64 -9 31 -2 73 -6 92 -10 19 -4 44 -8 56 -9 12 -1 30 -5
40 -10 10 -4 25 -9 33 -11 8 -1 48 -19 89 -40 101 -49 205 -153 251 -249 49
-104 55 -119 69 -200 8 -44 8 -263 0 -310 -10 -62 -26 -116 -49 -170 -7 -16
-13 -32 -13 -35 -1 -3 -18 -31 -39 -62 -105 -157 -287 -255 -505 -272 -21 -2
-44 -6 -50 -10 -7 -4 -12 -2 -12 4 0 6 -5 8 -11 5 -7 -5 -696 -9 -882 -6 -27
1 -28 3 -26 44 2 24 -1 49 -5 55 -4 7 -3 12 3 12 6 0 6 11 1 30 -5 16 -5 32 0
35 5 3 5 18 0 34 -4 16 -6 32 -2 35 7 8 7 69 -1 89 -4 10 -2 17 3 17 5 0 5 13
0 30 -5 16 -5 32 0 35 5 3 5 18 0 34 -4 16 -6 32 -2 35 3 4 5 25 4 49 -2 51
-3 419 -1 430 3 26 1 76 -4 90 -4 10 -2 17 3 17 5 0 5 13 0 30 -5 16 -5 32 0
35 5 3 5 18 0 34 -4 16 -6 32 -2 35 7 8 7 69 -1 89 -4 10 -2 17 3 17 5 0 5 13
0 30 -5 19 -5 30 1 30 6 0 7 5 3 11 -5 8 1 10 20 7 14 -3 29 -1 32 3 3 5 12 5
22 0 10 -6 23 -6 34 0z"/>
<path d="M12497 5124 c-1 -1 -20 -5 -41 -8 -95 -15 -173 -49 -251 -107 -187
-142 -265 -371 -211 -624 20 -97 94 -217 179 -291 43 -38 157 -103 189 -108 7
-1 18 -4 23 -8 23 -14 245 -32 245 -19 0 3 13 7 28 8 73 5 160 39 236 91 86
59 173 168 201 252 1 3 8 19 15 35 18 41 20 56 25 170 10 218 -70 381 -251
511 -34 24 -69 44 -77 44 -9 0 -19 4 -22 10 -8 13 -80 32 -135 36 -25 1 -45 4
-45 5 0 2 -105 5 -108 3z"/>
</g>
</svg>
